<svg width="816" height="1056" xmlns="http://www.w3.org/2000/svg">
  <defs>
    <clipPath clipPathUnits="userSpaceOnUse" id="a">
      <path d="M0 792h612V0H0Z"/>
    </clipPath>
    <clipPath clipPathUnits="userSpaceOnUse" id="b">
      <path d="M18.75 679.251h576V111.783h-576z"/>
    </clipPath>
  </defs>
  <g clip-path="url(#a)" transform="matrix(1.33333 0 0 -1.33333 0 1056)">
    <g clip-path="url(#b)">
      <path d="M0 0c-4.63 1.688-8.433 3.189-12.309 4.47-18.207 6.014-36.668 11.161-55.452 15.001-17.775 3.633-35.651 6.687-53.839 7.587-16.047.793-32.104 2.115-47.969-1.589-9.085-2.12-17.502-5.573-24.067-12.685-9.379-10.159-10.715-31.63 3.423-41.467 10.855-7.551 23.165-10.225 35.886-11.046 21.934-1.414 43.431 1.878 64.701 7.148 21.796 5.401 43.024 12.513 63.82 20.88C-17.306-8.281-8.785-4.778 0 0m36.07 256.474c-5.463-.415-10.438-.498-15.318-1.224-9.855-1.469-19.815-1.641-29.696-2.754-9.53-1.074-19.16-1.183-28.711-1.33-22.772-.349-45.669-1.619-68.161 3.586-11.233 2.601-21.384 7.354-29.64 15.663-6.238 6.278-10.877 13.566-14.047 21.8-.823 2.136-1.309 3.463-3.994 1.295-10.16-8.206-17.633-18.048-19.13-31.315-1.491-13.214 1.828-25.214 11.07-35.138 7.141-7.668 16.277-12.37 25.961-15.745 17.075-5.948 34.951-7.804 52.879-8.328 11.697-.341 23.433-.05 35.168.362 16.934.593 33.832 1.642 50.748 2.438 2.803.133 4.591.969 5.991 3.486 5.927 10.648 12.025 21.202 18.065 31.789 2.871 5.031 5.752 10.058 8.815 15.415M118.663 149c-8.513.409-16.71-.163-24.883-1.146-10.857-1.306-21.699-2.748-32.565-3.978-10.251-1.161-20.533-2.04-30.785-3.196-12.098-1.365-24.183-2.851-36.263-4.376-3.387-.427-6.585-.697-8.658-4.556-8.354-15.549-17.001-30.944-25.776-46.261-1.64-2.861-.997-3.432 1.786-4.054a2242.218 2242.218 0 0 0 50.484-11.918c27.315-6.774 54.449-14.11 80.92-23.732 1.563-.568 3.082-.751 4.621.336 7.215 5.095 14.996 9.296 22.324 14.245 15.635 10.562 30.878 21.477 42.31 36.799 5.014 6.721 8.837 14.244 8.308 22.67-.723 11.542-8.017 18.723-18.241 23.365-10.801 4.906-22.069 6.793-33.582 5.802M-19.775 320.507c19.314-.506 37.279 1.276 55.262 2.859 10.651.937 21.351 1.357 31.985 2.446 4.364.447 9.015-.161 11.728 5.729 4.459 9.677 10.335 18.701 15.571 28.024 5.411 9.635 10.669 19.357 16.213 28.914 1.678 2.894.42 3.742-1.913 4.997-13.61 7.316-27.498 14.048-41.592 20.382-15.929 7.159-32.18 13.49-49.051 17.958-19.396 5.137-38.978 9.262-59.283 5.67-15.808-2.796-30.085-8.838-41.949-19.778-13.247-12.216-19.94-27.476-19.517-45.529.604-25.787 13.419-40.735 37.09-47.262 15.257-4.209 30.92-5.051 45.456-4.41M125.564 35.485c1.918-1.664 3.995-1.825 5.8-2.565 16.127-6.608 32.297-13.109 48.436-19.688 1.65-.672 3.012-.713 4.533.391 4.021 2.922 8.239 5.577 12.193 8.582 15.749 11.969 31.068 24.421 44.523 39.026 11.019 11.961 20.53 24.864 27.684 39.561 7.191 14.774 11.257 30.314 12.2 46.575.914 15.774-.921 31.229-7.22 46.025-7.727 18.148-20.284 32.091-36.58 42.758-16.103 10.54-33.875 17.159-52.616 21.424a236.958 236.958 0 0 1-51.421 5.928c-13.784.072-27.625-.349-41.392-1.935-8.146-.939-16.407-.879-24.565-1.749-3.304-.353-7.359.835-9.654-3.214a6124.58 6124.58 0 0 0-25.55-44.695c-1.35-2.336-.935-2.965 1.684-3.112 5.015-.281 9.945.594 14.92.811 8.575.376 17.107 1.36 25.577 2.665 13.152 2.029 26.344 3.883 39.605 4.631 9.273.524 18.56 1.108 27.971.42 11.956-.873 23.813-1.903 35.416-4.866 17.34-4.429 33.512-11.012 46.226-24.419 9.734-10.266 14.504-22.493 15.478-36.26 1.139-16.133-4.549-30.305-13.925-43.101-7.233-9.871-15.836-18.473-25.373-26.166-12.221-9.859-25.183-18.637-38.682-26.621-11.561-6.838-23.25-13.463-35.268-20.406M-11.153 508.901h3c.673-.325 1.322-.718 2.023-.966 31.458-11.124 62.929-22.21 94.377-33.359a8429.125 8429.125 0 0 0 55.524-19.89c4.761-1.727 4.938-1.592 7.505 2.838 6.857 11.827 13.958 23.511 20.888 35.295 1.362 2.316 2.96 2.311 4.957 1.089 3.184-1.949 6.279-4.061 9.571-5.806 2.428-1.287 2.883-2.626 1.496-5.01-6.44-11.07-12.772-22.203-19.164-33.301-7.944-13.795-15.94-27.559-23.854-41.37-9.827-17.15-19.598-34.332-29.387-51.504-4.557-7.994-8.988-16.064-13.707-23.964-1.992-3.336-.658-3.508 2.311-3.598 3.53-.107 6.926.82 10.42.825 21.316.033 42.627.15 63.87-2.192 15.449-1.703 30.873-3.412 45.928-7.534 17.152-4.697 33.484-11.242 48.63-20.642 13.096-8.127 24.856-17.741 34.956-29.471 7.532-8.747 13.758-18.228 18.827-28.546 5.986-12.19 9.115-25.201 11.329-38.49v-29.211c-.085-.364-.211-.723-.248-1.091-2.074-20.501-9.04-39.493-18.787-57.401-9.363-17.207-21.392-32.623-34.752-46.949-10.381-11.132-21.75-21.267-33.427-30.981-15.015-12.491-30.935-23.852-47.36-34.421-27.023-17.39-55.128-32.894-84.03-46.964-2.907-1.415-5.381-1.134-8.17.095-13.323 5.87-26.623 11.8-40.063 17.394-14.472 6.025-29.671 10.229-43.756 17.242-1.633.813-3.043.625-4.601-.177-15.498-7.976-31.42-15.04-47.57-21.57-18.126-7.327-36.525-13.932-55.439-18.963-16.002-4.258-32.223-7.698-48.774-8.579-18.485-.984-36.842.368-54.699 5.893-12.752 3.945-24.507 9.677-34.542 18.626-11.143 9.938-17.319 22.516-19.782 37.071v20.224c1.777 11.032 5.879 21.164 13.203 29.591 8.507 9.787 18.961 17.121 30.879 22.432 22.172 9.883 45.497 14.303 69.616 14.864 7.84.182 15.684.096 23.556-.535 11.037-.887 22.06-1.905 33.009-3.426 3.322-.461 4.908.418 6.322 2.905 4.18 7.353 8.344 14.715 12.548 22.055 3.771 6.583 7.664 13.098 11.351 19.727 1.829 3.288 1.5 3.672-2.37 3.691-4.237.02-8.484-.558-12.672-.584-22.187-.138-44.39-.872-66.517 1.981-22.658 2.923-44.546 8.087-64.534 19.652-16.582 9.594-28.669 23.069-35.027 41.216-4.746 13.547-4.784 27.603-3.192 41.697 2.558 22.634 13.656 40.325 31.395 54.253 9.79 7.687 20.68 13.37 32.079 18.142 2.985 1.25 4.263 2.929 4.118 6.176-.195 4.358-.395 8.782.117 13.094 1.96 16.533 7.965 31.815 15.843 46.29 11.953 21.964 27.413 41.48 44.504 59.602 12.311 13.052 25.033 25.75 38.707 37.46 14.172 12.136 28.518 24.033 43.565 35.075" style="fill:#000;fill-opacity:1;fill-rule:nonzero;stroke:none" transform="translate(256.403 170.35)"/>
    </g>
  </g>
</svg>
